<?xml version="1.0" encoding="UTF-8" standalone="no"?>
<!-- Created with Inkscape (http://www.inkscape.org/) -->

<svg
   width="104.68922mm"
   height="105.8334mm"
   viewBox="0 0 104.68922 105.8334"
   version="1.1"
   id="svg5"
   inkscape:version="1.1 (c68e22c387, 2021-05-23)"
   sodipodi:docname="logo.svg"
   xmlns:inkscape="http://www.inkscape.org/namespaces/inkscape"
   xmlns:sodipodi="http://sodipodi.sourceforge.net/DTD/sodipodi-0.dtd"
   xmlns="http://www.w3.org/2000/svg"
   xmlns:svg="http://www.w3.org/2000/svg">
  <sodipodi:namedview
     id="namedview7"
     pagecolor="#ffffff"
     bordercolor="#666666"
     borderopacity="1.0"
     inkscape:pageshadow="2"
     inkscape:pageopacity="0.0"
     inkscape:pagecheckerboard="0"
     inkscape:document-units="mm"
     showgrid="false"
     inkscape:snap-text-baseline="true"
     inkscape:zoom="1.4408381"
     inkscape:cx="148.87169"
     inkscape:cy="150.95381"
     inkscape:window-width="1920"
     inkscape:window-height="1001"
     inkscape:window-x="-9"
     inkscape:window-y="-9"
     inkscape:window-maximized="1"
     inkscape:current-layer="text1677"
     inkscape:snap-global="true"
     fit-margin-top="0"
     fit-margin-left="0"
     fit-margin-right="0"
     fit-margin-bottom="0" />
  <defs
     id="defs2">
    <clipPath
       clipPathUnits="userSpaceOnUse"
       id="clipPath15904">
      <path
         style="fill:none;stroke:#000000;stroke-width:0.264583px;stroke-linecap:butt;stroke-linejoin:miter;stroke-opacity:1"
         d="m 152.88916,73.701352 c 37.49076,-50.475367 37.49076,-50.475367 37.49076,-50.475367 l 13.53325,39.319581 -23.40886,20.116996 -23.77463,-2.377464 z"
         id="path15906" />
    </clipPath>
    <clipPath
       clipPathUnits="userSpaceOnUse"
       id="clipPath23452">
      <rect
         style="font-variation-settings:'wght' 600;fill:#ffffff;fill-opacity:1;stroke:#451150;stroke-width:0.186381;stroke-opacity:0.390244"
         id="rect23454"
         width="26.896814"
         height="54.796906"
         x="128.51932"
         y="165.70023" />
    </clipPath>
    <clipPath
       clipPathUnits="userSpaceOnUse"
       id="clipPath23452-6">
      <rect
         style="font-variation-settings:'wght' 600;fill:#ffffff;fill-opacity:1;stroke:#451150;stroke-width:0.186381;stroke-opacity:0.390244"
         id="rect23454-1"
         width="26.896814"
         height="54.796906"
         x="128.51932"
         y="165.70023" />
    </clipPath>
    <clipPath
       clipPathUnits="userSpaceOnUse"
       id="clipPath53739">
      <rect
         style="font-variation-settings:'wght' 600;fill:#ffffff;fill-opacity:1;stroke:#451150;stroke-width:0.186381;stroke-opacity:0.390244"
         id="rect53737"
         width="26.896814"
         height="54.796906"
         x="128.51932"
         y="165.70023" />
    </clipPath>
    <clipPath
       clipPathUnits="userSpaceOnUse"
       id="clipPath53930">
      <path
         style="font-variation-settings:'wght' 600;fill:#de6449;fill-opacity:1;stroke:#451150;stroke-width:0.252294;stroke-opacity:0"
         id="path53932"
         width="396.62271"
         height="132.03937"
         x="-39.235291"
         y="712.23181"
         sodipodi:type="rect"
         d="M -39.235291,712.23181 H 357.38742 V 844.27118 H -39.235291 Z" />
    </clipPath>
    <clipPath
       clipPathUnits="userSpaceOnUse"
       id="clipPath23452-9">
      <rect
         style="font-variation-settings:'wght' 600;fill:#ffffff;fill-opacity:1;stroke:#451150;stroke-width:0.186381;stroke-opacity:0.390244"
         id="rect23454-8"
         width="26.896814"
         height="54.796906"
         x="128.51932"
         y="165.70023" />
    </clipPath>
    <clipPath
       clipPathUnits="userSpaceOnUse"
       id="clipPath64208">
      <rect
         style="font-variation-settings:'wght' 600;fill:#ffffff;fill-opacity:1;stroke:#451150;stroke-width:0.186381;stroke-opacity:0.390244"
         id="rect64206"
         width="26.896814"
         height="54.796906"
         x="128.51932"
         y="165.70023" />
    </clipPath>
    <clipPath
       clipPathUnits="userSpaceOnUse"
       id="clipPath23452-9-5">
      <rect
         style="font-variation-settings:'wght' 600;fill:#ffffff;fill-opacity:1;stroke:#451150;stroke-width:0.186381;stroke-opacity:0.390244"
         id="rect23454-8-1"
         width="26.896814"
         height="54.796906"
         x="128.51932"
         y="165.70023" />
    </clipPath>
    <clipPath
       clipPathUnits="userSpaceOnUse"
       id="clipPath2343">
      <rect
         style="font-variation-settings:'wght' 600;fill:#ffffff;fill-opacity:1;stroke:#451150;stroke-width:0.186381;stroke-opacity:0.390244"
         id="rect2341"
         width="26.896814"
         height="54.796906"
         x="128.51932"
         y="165.70023" />
    </clipPath>
  </defs>
  <g
     inkscape:label="Layer 1"
     inkscape:groupmode="layer"
     id="layer1">
    <ellipse
       style="font-variation-settings:'wght' 600;fill:#1a1f23;fill-opacity:1;stroke:#451150;stroke-width:0.254432;stroke-opacity:0"
       id="ellipse1671"
       cx="128.04865"
       cy="193.13011"
       clip-path="url(#clipPath23452-9-5)"
       transform="matrix(-1.7871489,-0.74026134,0.74026134,-1.7871489,139.08438,493.15073)"
       inkscape:export-filename="C:\Users\steev\Documents\Inkscape files\logo.png"
       inkscape:export-xdpi="96"
       inkscape:export-ydpi="96"
       rx="27.372885"
       ry="27.372784" />
    <circle
       style="font-variation-settings:'wght' 600;fill:#ffffff;fill-opacity:1;stroke:#451150;stroke-width:0.254432;stroke-opacity:0"
       id="circle1673"
       cx="128.04865"
       cy="193.13011"
       r="27.372784"
       clip-path="url(#clipPath23452-9-5)"
       transform="matrix(1.7871489,0.74026134,-0.74026134,1.7871489,-34.394985,-387.31729)"
       inkscape:export-filename="C:\Users\steev\Documents\Inkscape files\logo.png"
       inkscape:export-xdpi="96"
       inkscape:export-ydpi="96" />
    <g
       aria-label="S"
       id="text1677"
       style="font-size:20.36px;line-height:1.25;font-family:Bahnschrift;-inkscape-font-specification:Bahnschrift;fill:#ffffff;stroke:#451150;stroke-width:0.508994;stroke-opacity:0">
      <path
         d="m 32.679109,66.369989 q -2.365187,0 -4.545274,-0.740407 -2.180086,-0.740406 -3.804867,-2.118385 -1.624781,-1.398546 -2.324054,-3.311263 l 4.010536,-1.50138 q 0.349636,0.987209 1.336845,1.768749 1.007776,0.760973 2.385755,1.192877 1.398546,0.431904 2.941059,0.431904 1.645348,0 3.085028,-0.534738 1.460246,-0.534738 2.344621,-1.480813 0.904941,-0.946075 0.904941,-2.22122 0,-1.316279 -0.946075,-2.15952 -0.925508,-0.84324 -2.385754,-1.336845 -1.43968,-0.493604 -3.002761,-0.740406 -3.023327,-0.493605 -5.429648,-1.43968 -2.385755,-0.946075 -3.784301,-2.653124 -1.377979,-1.707048 -1.377979,-4.442439 0,-2.570857 1.460247,-4.483574 1.480813,-1.912717 3.887134,-2.961626 2.426889,-1.069477 5.244547,-1.069477 2.324055,0 4.483574,0.740407 2.180086,0.71984 3.825434,2.118386 1.665915,1.377979 2.385755,3.352396 l -4.05167,1.460247 q -0.349636,-1.007776 -1.336845,-1.748183 -0.987209,-0.760973 -2.385755,-1.192877 -1.377979,-0.431904 -2.920493,-0.431904 -1.645348,-0.02057 -3.085027,0.534738 -1.419113,0.534738 -2.324054,1.480814 -0.904942,0.946075 -0.904942,2.200653 0,1.542513 0.843241,2.344621 0.843241,0.802107 2.262354,1.192877 1.439679,0.370203 3.208428,0.678706 2.838226,0.452471 5.244547,1.50138 2.426889,1.048909 3.887135,2.797092 1.480813,1.727615 1.480813,4.257338 0,2.550289 -1.480813,4.483573 -1.460246,1.912717 -3.887135,2.982194 -2.406321,1.048909 -5.244547,1.048909 z"
         style="font-size:41.1337px;font-family:Urbanist;-inkscape-font-specification:'Urbanist, @wght=600';font-variation-settings:'wght' 600"
         id="path845" />
    </g>
    <g
       aria-label="C"
       id="text1681"
       style="font-size:20.36px;line-height:1.25;font-family:Bahnschrift;-inkscape-font-specification:Bahnschrift;fill:#1a1f23;stroke:#451150;stroke-width:0.508994;stroke-opacity:0">
      <path
         d="m 75.486837,66.607599 q -2.920493,0 -5.491349,-1.151744 -2.570856,-1.17231 -4.524707,-3.208429 -1.933284,-2.056685 -3.043894,-4.771509 -1.090043,-2.714824 -1.090043,-5.799852 0,-3.085027 1.090043,-5.799852 1.11061,-2.714824 3.043894,-4.750942 1.953851,-2.056685 4.524707,-3.208429 2.570856,-1.17231 5.491349,-1.17231 3.496365,0 6.437424,1.624781 2.94106,1.624781 4.874344,4.319039 l -3.804867,2.036118 q -1.336846,-1.686482 -3.311263,-2.694258 -1.974418,-1.007775 -4.195638,-1.007775 -2.056685,0 -3.846001,0.84324 -1.789316,0.843241 -3.146728,2.303488 -1.357412,1.460246 -2.118386,3.39353 -0.760973,1.933284 -0.760973,4.11337 0,2.200653 0.760973,4.133937 0.760974,1.912717 2.118386,3.393531 1.377979,1.460246 3.167295,2.303487 1.789316,0.822674 3.825434,0.822674 2.262354,0 4.216204,-1.007776 1.974418,-1.028342 3.290697,-2.714824 l 3.804867,2.077252 q -1.933284,2.694257 -4.874344,4.319038 -2.941059,1.604215 -6.437424,1.604215 z"
         style="font-size:41.1337px;font-family:Urbanist;-inkscape-font-specification:'Urbanist, @wght=600';font-variation-settings:'wght' 600"
         id="path866" />
    </g>
  </g>
</svg>
